# xmcd
#
# Track frame offsets: 
#        150
#        13477
#        27077
#        40265
#        53185
#        67540
#        82147
#        94582
#        107157
#        121030
#        134317
#        148162
#        162770
#        175440
#        190235
#        203660
#        217662
#        230162
#        242275
#        254755
#        266972
#        278847
#
# Disc length: 3882 seconds
#
# Revision: 2
# Processed by: cddbd v1.5.2PL0 Copyright (c) Steve Scherf et al.
# Submitted via: ExactAudioCopy v1.0b3
#
DISCID=3c0f2816
DTITLE=Arthur ''Big Boy'' Crudup - Complete Recorded Works 1941-1945 V
DTITLE=ol. 2
DYEAR=1993
DGENRE=Blues
TTITLE0=Crudup's After Hours
TTITLE1=I Want My Lovin'
TTITLE2=That's All Right
TTITLE3=I Don't Know It
TTITLE4=Cry Your Blues Away
TTITLE5=Crudup's Vicksburg Blues
TTITLE6=Gonna Be Some Changes Made
TTITLE7=Train Fare Blues
TTITLE8=Katie Mae
TTITLE9=Hey Mama, Everything's All Right
TTITLE10=Hoodoo Lady Blues
TTITLE11=Lonesome World To Me
TTITLE12=Roberta Blues
TTITLE13=Just Like A Spider
TTITLE14=Some Day
TTITLE15=That's Why I'm Lonesome
TTITLE16=Tired Of Worry
TTITLE17=Dust My Broom
TTITLE18=Hand Me Down My Walking Cane
TTITLE19=Shout Sister Shout
TTITLE20=Come Back Baby
TTITLE21=You Know That I Love You
EXTD=
EXTT0=
EXTT1=
EXTT2=
EXTT3=
EXTT4=
EXTT5=
EXTT6=
EXTT7=
EXTT8=
EXTT9=
EXTT10=
EXTT11=
EXTT12=
EXTT13=
EXTT14=
EXTT15=
EXTT16=
EXTT17=
EXTT18=
EXTT19=
EXTT20=
EXTT21=
PLAYORDER=
